<svg xmlns="http://www.w3.org/2000/svg" fill="currentColor" aria-hidden="true" viewBox="0 0 63 65"><path d="M36.027 36.587h-6.415a8.456 8.456 0 0 0-8.457 8.456v7.874c0 6.441 5.223 11.664 11.664 11.664 6.442 0 11.664-5.223 11.664-11.664v-7.874a8.456 8.456 0 0 0-8.456-8.456Zm-6.415 5.25h6.415a3.208 3.208 0 0 1 3.208 3.207v7.873a6.415 6.415 0 0 1-12.83 0v-7.873a3.208 3.208 0 0 1 3.207-3.208ZM2.785 18.508a2.625 2.625 0 0 1 2.621 2.5l.003.124v19.246a2.624 2.624 0 0 1-5.246.123l-.003-.123V21.132a2.624 2.624 0 0 1 2.625-2.624Z" opacity=".5"/><path d="m2.784 39.212 55.592 16.192a3.5 3.5 0 0 0 4.478-3.36V4.084c0-2.46-2.472-4.153-4.766-3.262L2.784 22.299v16.913Z"/></svg>