<svg xmlns="http://www.w3.org/2000/svg" fill="currentColor" aria-hidden="true" viewBox="0 0 46 65"><path fill-rule="evenodd" d="M39.49 38c8.493-8.493 8.493-22.263 0-30.757-8.908-8.907-23.35-8.907-32.257 0-.244.244-.482.494-.715.75-8.08 8.887-7.424 22.642 1.463 30.722l3.995 3.632v7.384h22.77v-7.384l3.995-3.632c.255-.232.505-.47.749-.714ZM25.483 10.01a2.577 2.577 0 0 0-2.577-2.576c-8.38 0-15.173 6.793-15.173 15.173v.573l.003.12a2.577 2.577 0 0 0 5.15-.12v-.573l.002-.188c.1-5.447 4.547-9.832 10.018-9.832a2.577 2.577 0 0 0 2.577-2.577Z"/><path d="M11.976 54.884v1.995a7.683 7.683 0 0 0 7.682 7.683h7.405a7.683 7.683 0 0 0 7.682-7.683v-1.995h-22.77Z" opacity=".5"/></svg>