<svg xmlns="http://www.w3.org/2000/svg" fill="currentColor" aria-hidden="true" viewBox="0 0 64 64"><path d="M31.811 38.092c-.418-1.086-1.956-1.086-2.374 0l-1.605 4.168-4.168 1.606c-1.087.418-1.087 1.956 0 2.374l4.168 1.605 1.605 4.169c.418 1.086 1.956 1.086 2.374 0l1.606-4.169 4.168-1.605c1.087-.418 1.087-1.956 0-2.374l-4.168-1.606-1.606-4.168Z" opacity=".5"/><path fill-rule="evenodd" d="M32 0c17.673 0 32 14.327 32 32 0 17.673-14.327 32-32 32C14.327 64 0 49.673 0 32 0 14.327 14.327 0 32 0Zm14.633 24.45c-.419-1.087-1.956-1.087-2.375 0l-1.605 4.168-4.168 1.605c-1.087.419-1.087 1.956 0 2.375l4.168 1.605 1.605 4.168c.419 1.087 1.956 1.087 2.375 0l1.605-4.168 4.168-1.605c1.087-.419 1.087-1.956 0-2.375l-4.168-1.605-1.605-4.168ZM31.812 38.092c-.419-1.087-1.956-1.087-2.375 0l-1.605 4.168-4.168 1.605c-1.087.419-1.087 1.956 0 2.375l4.168 1.605 1.605 4.168c.419 1.087 1.956 1.087 2.375 0l1.605-4.168 4.168-1.605c1.087-.419 1.087-1.956 0-2.375l-4.168-1.605-1.605-4.168Zm-9.097-24.725c.503-1.304 2.348-1.304 2.85 0l1.975 5.128 5.127 1.975c1.305.502 1.305 2.347 0 2.85l-5.127 1.974-1.975 5.128c-.502 1.304-2.347 1.304-2.85 0l-1.974-5.128-5.128-1.975c-1.304-.502-1.304-2.347 0-2.85l5.128-1.974 1.974-5.128Z"/></svg>