<svg xmlns="http://www.w3.org/2000/svg" fill="currentColor" aria-hidden="true" viewBox="0 0 64 65"><path d="M32.68 8.957 4.863 36.775l4.402 4.647L36.895 13.79c.105-.105.217-.2.334-.285L32.68 8.957ZM18.89 51.582l-5.798-6.12 27.737-27.738.099-.103c.067-.074.129-.151.186-.23l6.006 6.005c-.117.085-.228.18-.334.285L18.968 51.5l-.078.083Zm3.817 4.03 4.41 4.654L55.553 31.83l-4.548-4.548c-.057.079-.12.156-.186.23l-.099.104-27.818 27.818a2.824 2.824 0 0 1-.195.177Z" opacity=".5"/><path d="M32.68 8.957 55.554 31.83l6.191-6.19a7.418 7.418 0 0 0 0-10.492L49.362 2.766a7.418 7.418 0 0 0-10.49 0L32.68 8.957ZM4.862 36.775l-3.24 3.241A3.71 3.71 0 0 0 .535 42.64v18.245a3.71 3.71 0 0 0 3.71 3.71h17.008c.984 0 1.927-.391 2.623-1.087l3.24-3.24L4.863 36.774Z"/></svg>