<svg xmlns="http://www.w3.org/2000/svg" fill="currentColor" aria-hidden="true" viewBox="0 0 65 42"><path d="M38.993 15.129a2.863 2.863 0 0 1 2.229 2.787 2.866 2.866 0 0 1-2.873 2.858 2.866 2.866 0 0 1-2.873-2.858c0-1.359.952-2.496 2.229-2.787h-10.61a2.865 2.865 0 0 1 2.636 2.849 2.866 2.866 0 0 1-2.873 2.859 2.866 2.866 0 0 1-2.873-2.859c0-1.5 1.16-2.73 2.636-2.85H10.243c-2.539 0-4.9 2.049-4.9 4.575V39.45H60.19V19.703c0-2.526-2.058-4.574-4.596-4.574H38.993Z" opacity=".5"/><path fill-rule="evenodd" d="M16.707 37.138V4.765c0-2.526 2.058-4.574 4.597-4.574h22.599c2.538 0 4.596 2.048 4.596 4.574v32.373h14.173a1.932 1.932 0 0 1 0 3.864H2.535a1.932 1.932 0 1 1 0-3.864h14.172Zm12.258 0v-5.974c0-1.949 1.588-3.53 3.546-3.53a3.538 3.538 0 0 1 3.547 3.53v5.974h-7.093Zm.766-19.16a2.866 2.866 0 0 0-2.873-2.858 2.866 2.866 0 0 0-2.873 2.859 2.866 2.866 0 0 0 2.873 2.858 2.866 2.866 0 0 0 2.873-2.858Zm8.618-2.92a2.866 2.866 0 0 1 2.873 2.858 2.866 2.866 0 0 1-2.873 2.859 2.866 2.866 0 0 1-2.873-2.859 2.866 2.866 0 0 1 2.873-2.859Zm-8.618-6.29a2.866 2.866 0 0 0-2.873-2.858 2.866 2.866 0 0 0-2.873 2.859 2.866 2.866 0 0 0 2.873 2.858A2.866 2.866 0 0 0 29.73 8.77Zm8.618-2.858a2.866 2.866 0 0 1 2.873 2.859 2.866 2.866 0 0 1-2.873 2.858 2.866 2.866 0 0 1-2.873-2.858A2.866 2.866 0 0 1 38.35 5.91Z"/></svg>