<svg xmlns="http://www.w3.org/2000/svg" fill="currentColor" aria-hidden="true" viewBox="0 0 32 32"><path d="M6 5.333h9.333a3.333 3.333 0 0 1 0 6.667H6a3.333 3.333 0 0 1 0-6.667Zm9.333 4a.667.667 0 0 0 0-1.333H6a.667.667 0 0 0 0 1.333h9.333Zm-6.666 4H18A3.333 3.333 0 1 1 18 20H8.667a3.333 3.333 0 0 1 0-6.667Zm9.333 4A.667.667 0 0 0 18 16H8.667a.667.667 0 0 0 0 1.333H18Zm6.667 4h-9.334a3.333 3.333 0 1 0 0 6.667h9.334a3.333 3.333 0 0 0 0-6.667Zm-9.334 4a.667.667 0 0 1 0-1.333h9.334a.667.667 0 1 1 0 1.333h-9.334Zm8-20H26A3.333 3.333 0 1 1 26 12h-2.667a3.333 3.333 0 1 1 0-6.667Zm2.667 4A.667.667 0 1 0 26 8h-2.667a.667.667 0 1 0 0 1.333H26Z"/></svg>