<svg xmlns="http://www.w3.org/2000/svg" fill="currentColor" aria-hidden="true" viewBox="0 0 32 32"><path d="M6.66 6.667h18.68A2.66 2.66 0 0 1 28 9.325v16.016A2.659 2.659 0 0 1 25.34 28H6.66A2.66 2.66 0 0 1 4 25.341V9.325a2.659 2.659 0 0 1 2.66-2.658ZM6.667 12v12A1.333 1.333 0 0 0 8 25.333h16A1.333 1.333 0 0 0 25.333 24V12H6.667ZM8 5.333a1.333 1.333 0 0 1 2.667 0v1.334H8V5.333Zm13.333 0a1.333 1.333 0 0 1 2.667 0v1.334h-2.667V5.333Zm-12 12v-2.668H12v2.668H9.333Zm10.667 0v-2.668h2.667v2.668H20Zm-5.333 0v-2.668h2.668v2.668h-2.668Zm-5.334 5.334V20H12v2.667H9.333Zm5.334 0V20h2.668v2.667h-2.668Zm5.333 0V20h2.667v2.667H20Z"/></svg>