<svg xmlns="http://www.w3.org/2000/svg" fill="currentColor" aria-hidden="true" viewBox="0 0 65 63"><path d="M13.354 3.761A3.728 3.728 0 0 1 17.084.033h6.835a3.728 3.728 0 0 1 3.728 3.728v6.835a3.728 3.728 0 0 1-3.728 3.729h-6.835a3.728 3.728 0 0 1-3.728-3.729V3.761ZM38.209 3.761A3.728 3.728 0 0 1 41.937.033h6.835A3.728 3.728 0 0 1 52.5 3.761v6.835a3.728 3.728 0 0 1-3.728 3.729h-6.835a3.728 3.728 0 0 1-3.728-3.729V3.761Z" opacity=".5"/><path d="M57.471 10.596a7.456 7.456 0 0 1 7.457 7.456v36.66a7.456 7.456 0 0 1-7.457 7.456H8.384a7.456 7.456 0 0 1-7.456-7.456v-36.66a7.456 7.456 0 0 1 7.456-7.456h49.087Z"/></svg>