<svg xmlns="http://www.w3.org/2000/svg" fill="currentColor" fill-rule="evenodd" aria-hidden="true" viewBox="0 0 14 15"><path d="M14 12.66a1.925 1.925 0 0 1-1.925 1.925H1.925A1.925 1.925 0 0 1 0 12.659V6.848c0-1.063.862-1.925 1.925-1.925h10.15c1.063 0 1.925.862 1.925 1.925v5.811ZM5.931 9.768a1.308 1.308 0 1 1-2.615 0 1.308 1.308 0 0 1 2.615 0Zm3.462 1.307a1.308 1.308 0 1 0 0-2.615 1.308 1.308 0 0 0 0 2.615Z"/><path d="M7 0a1.884 1.884 0 0 0-.692 3.637V4.955a.692.692 0 0 0 1.384-.033V3.637A1.885 1.885 0 0 0 7 0Zm.01 2.384a.5.5 0 1 0-.02-1 .5.5 0 0 0 .02 1Z" opacity=".5"/></svg>