<svg xmlns="http://www.w3.org/2000/svg" fill="currentColor" aria-hidden="true" viewBox="0 0 65 65"><path d="M10.002 25.73h45.359v27.34H10.002z" opacity=".5"/><g fill-rule="evenodd"><path d="M56.63.877H7.491h49.137Zm7.43 17.398h-64v39.146a7.456 7.456 0 0 0 7.457 7.456h49.087a7.456 7.456 0 0 0 7.457-7.456V18.275ZM27.514 31.211a2.796 2.796 0 0 0-3.954 0l-6.835 6.834-.099.105a2.796 2.796 0 0 0 .1 3.85l6.834 6.835.104.099a2.796 2.796 0 0 0 3.85-.1l.1-.104a2.796 2.796 0 0 0-.1-3.85l-4.858-4.857 4.858-4.858.1-.104a2.796 2.796 0 0 0-.1-3.85Zm13.67 0a2.796 2.796 0 0 0-4.053 3.85l.1.104 4.858 4.858-4.859 4.857a2.796 2.796 0 0 0-.1 3.85l.1.105a2.796 2.796 0 0 0 3.85.099l.104-.1L48.018 42a2.796 2.796 0 0 0 .1-3.85l-.1-.105-6.835-6.835Z"/><path d="M64.06 18.275h-64V8.333A7.456 7.456 0 0 1 7.518.877h49.087a7.456 7.456 0 0 1 7.457 7.456v9.942Zm-55.3-4.35a3.728 3.728 0 1 0 0-7.456 3.728 3.728 0 0 0 0 7.456Zm13.67-3.728a3.728 3.728 0 1 1-7.457 0 3.728 3.728 0 0 1 7.456 0Zm6.213 3.729a3.728 3.728 0 1 0 0-7.457 3.728 3.728 0 0 0 0 7.456Z" opacity=".5"/></g></svg>