<svg xmlns="http://www.w3.org/2000/svg" fill="currentColor" aria-hidden="true" viewBox="0 0 65 65"><mask id="globe" width="64" height="63" x="0" y="0"><rect width="62.129" height="62.129" x="63.02" y="62.691" fill="#fff" rx="31.064" transform="rotate(-180 63.02 62.691)"/></mask><g mask="url(#globe)"><path fill-rule="evenodd" d="M59.749 80.947c26.938 0 48.776-21.838 48.776-48.776 0-26.939-21.838-48.776-48.776-48.776a48.553 48.553 0 0 0-28.067 8.879 48.553 48.553 0 0 0-28.067-8.88c-26.938 0-48.776 21.838-48.776 48.777 0 26.938 21.838 48.776 48.776 48.776a48.553 48.553 0 0 0 28.067-8.879 48.553 48.553 0 0 0 28.067 8.88Zm0-92.648a43.667 43.667 0 0 0-24.023 7.156c6.846 5.992 12.002 13.868 14.657 22.819H67.38a2.452 2.452 0 0 1 .115 4.902l-.115.003H51.564c.213 1.139.385 2.291.517 3.456a6.253 6.253 0 0 0-2.142 4.718c0 1.951.891 3.694 2.289 4.843a48.841 48.841 0 0 1-.473 3.877h15.624a2.452 2.452 0 0 1 .115 4.902l-.115.003H50.693c-2.552 9.401-7.844 17.675-14.966 23.909a43.666 43.666 0 0 0 24.022 7.155c24.23 0 43.872-19.642 43.872-43.871 0-24.23-19.642-43.872-43.872-43.872Zm-56.134 0a43.666 43.666 0 0 1 24.023 7.156C20.792 1.447 15.637 9.323 12.981 18.274H-1.29l-.116.002a2.453 2.453 0 0 0 .115 4.903H11.8a49.045 49.045 0 0 0-.828 8.992c0 2.69.218 5.33.637 7.902H-1.29l-.115.003a2.453 2.453 0 0 0 .115 4.902h13.961c2.552 9.401 7.844 17.675 14.967 23.909a43.667 43.667 0 0 1-24.023 7.155c-24.23 0-43.871-19.642-43.871-43.871 0-24.23 19.642-43.872 43.871-43.872Zm29.346 76.484a44.18 44.18 0 0 1-1.279 1.108c-.433-.36-.859-.73-1.278-1.107.372.227.81.359 1.278.359.469 0 .907-.132 1.279-.36Zm12.627-19.805A43.877 43.877 0 0 1 33.661 64.14c.298-.406.474-.907.474-1.449V44.978h11.453Zm1.899-12.807c0 2.698-.244 5.339-.71 7.902H34.135V24.66a6.253 6.253 0 0 1-2.18-4.751c0-1.9.845-3.602 2.18-4.751V.654a43.887 43.887 0 0 1 11.105 17.62h-.966c.14.521.215 1.07.215 1.635a6.238 6.238 0 0 1-.92 3.27h2.996c.604 2.902.922 5.91.922 8.992ZM18.33 46.669a43.909 43.909 0 0 0 11.373 17.47 2.44 2.44 0 0 1-.47-1.333l-.003-.116V44.978H26.3a6.24 6.24 0 0 0 1.295-3.815c0-.371-.033-.736-.095-1.09h1.73V23.18H16.8a44.315 44.315 0 0 0-.596 14.373 6.266 6.266 0 0 0 2.125 9.116ZM29.23.654a43.887 43.887 0 0 0-11.106 17.62H29.23V.654Z" opacity=".5"/></g><path d="m29.23.68-.028.002a43.887 43.887 0 0 0-11.077 17.592H29.23V.679Zm-1.237 61.76c.41.052.822.096 1.237.132V44.978H26.3a6.257 6.257 0 0 1-4.972 2.453 6.24 6.24 0 0 1-2.998-.762 43.87 43.87 0 0 0 9.663 15.77ZM16.205 37.552a44.305 44.305 0 0 1-.327-5.381c0-3.082.318-6.09.923-8.992h12.43v16.894H27.5a6.27 6.27 0 0 0-11.296-2.521Zm17.93 25.063c.392-.027.782-.062 1.17-.103a43.835 43.835 0 0 0 10.284-17.534H34.135v17.637Zm25.877-17.637A31.175 31.175 0 0 1 43.285 60.56a48.573 48.573 0 0 0 7.409-15.58h9.318Zm3.008-13.352a31.09 31.09 0 0 1-1.163 8.447H51.755c.208-1.276.367-2.57.474-3.877a6.267 6.267 0 1 0-.147-9.561 48.712 48.712 0 0 0-.517-3.456h10.292a31.089 31.089 0 0 1 1.163 8.447ZM50.383 18.274h9.628A31.163 31.163 0 0 0 42.16 2.277a48.628 48.628 0 0 1 8.223 15.997ZM3.899 44.978a31.181 31.181 0 0 0 15.96 15.269 48.565 48.565 0 0 1-7.187-15.269H3.899Zm7.711-4.905H2.053a31.088 31.088 0 0 1-1.162-8.447c0-2.928.405-5.762 1.162-8.447h9.748a49.047 49.047 0 0 0-.828 8.992c0 2.69.218 5.33.637 7.902Zm9.384-37.522A31.17 31.17 0 0 0 3.899 18.274h9.083A48.622 48.622 0 0 1 20.994 2.55Zm25.784 37.522c.466-2.563.71-5.204.71-7.902 0-3.082-.318-6.09-.923-8.992H43.57a6.264 6.264 0 0 1-5.347 2.997 6.243 6.243 0 0 1-4.088-1.516v15.413h12.643Zm-8.555-26.432c-1.562 0-2.99.572-4.088 1.516V.654a43.887 43.887 0 0 1 11.106 17.62h-.966a6.27 6.27 0 0 0-6.052-4.633Z"/></svg>