<svg xmlns="http://www.w3.org/2000/svg" fill="currentColor" aria-hidden="true" viewBox="0 0 65 65"><path d="M55.805 34.719a2.54 2.54 0 0 0-.12-5.079H35.078V18.348l-.002-.182a9.316 9.316 0 0 0-9.314-9.135H9.386l-.12.003a2.54 2.54 0 0 0 .12 5.079h16.375l.137.002a4.235 4.235 0 0 1 4.097 4.233v27.666l-.002.137a4.235 4.235 0 0 1-4.232 4.098H9.386l-.12.003a2.54 2.54 0 0 0 .12 5.079h16.375l.18-.002a9.316 9.316 0 0 0 9.136-9.315V34.722h20.609l.12-.003Z" opacity=".5"/><path d="M11.928.563c6.08 0 11.01 4.929 11.01 11.01 0 6.08-4.93 11.01-11.01 11.01S.918 17.653.918 11.573c0-6.081 4.93-11.01 11.01-11.01ZM11.928 41.78c6.08 0 11.01 4.929 11.01 11.01 0 6.08-4.93 11.01-11.01 11.01S.918 58.87.918 52.79c0-6.081 4.93-11.01 11.01-11.01ZM53.147 21.172c6.08 0 11.01 4.93 11.01 11.01s-4.93 11.01-11.01 11.01-11.01-4.93-11.01-11.01 4.93-11.01 11.01-11.01Z"/></svg>