<svg xmlns="http://www.w3.org/2000/svg" fill="currentColor" aria-hidden="true" viewBox="0 0 91 91"><path d="M25.06 81.71c-.312 1.371-2.011 1.861-3.006.867L8.09 68.615c-.994-.994-.504-2.694.867-3.006l8.853-2.02 9.27 9.268-2.02 8.853ZM69.42 47.785l7.4-29.61c.654-2.618-1.718-4.99-4.336-4.335l-29.61 7.405 26.545 26.54Z"/><path fill-rule="evenodd" d="m69.42 47.786-26.546-26.54-28.646 28.65a7.15 7.15 0 0 0 0 10.112l16.433 16.43a7.15 7.15 0 0 0 10.111 0L69.42 47.785ZM34.661 61.962a5.958 5.958 0 1 0 0-11.916 5.958 5.958 0 0 0 0 11.916Zm18.175-18.177a5.958 5.958 0 1 1-11.916 0 5.958 5.958 0 0 1 11.916 0Z" opacity=".5"/></svg>