<svg xmlns="http://www.w3.org/2000/svg" fill="currentColor" aria-hidden="true" viewBox="0 0 65 63"><path d="m26.998 4.473-6.401 12.992-14.313 2.083a6.435 6.435 0 0 0-3.685 1.881l-.14.149a6.458 6.458 0 0 0 .257 8.971l10.357 10.113-2.445 14.28a6.46 6.46 0 0 0 .647 4.092l.092.17a6.433 6.433 0 0 0 8.602 2.537L32.771 55l12.802 6.742a6.429 6.429 0 0 0 4.084.648l.187-.035a6.45 6.45 0 0 0 5.07-7.412l-2.445-14.28L62.826 30.55a6.453 6.453 0 0 0 1.878-3.69l.024-.186c.401-3.454-2.013-6.621-5.47-7.125l-14.313-2.083-6.4-12.992a6.433 6.433 0 0 0-11.547 0Z"/></svg>