<svg xmlns="http://www.w3.org/2000/svg" fill="currentColor" aria-hidden="true" viewBox="0 0 64 64"><g fill-rule="evenodd"><path d="M64 47.003a6.073 6.073 0 0 1-6.072 6.073H52.34v-5.061H17.946a6.074 6.074 0 0 1-6.052-5.567H45.55V17.649H11.873V7.021A6.073 6.073 0 0 1 17.946.948h39.982A6.073 6.073 0 0 1 64 7.021v39.982Z" opacity=".5"/><path d="M52.339 17.143a6.073 6.073 0 0 0-6.074-6.073H6.073A6.073 6.073 0 0 0 0 17.143v31.884h52.339V17.143Zm-6.791.506H6.578v24.8h38.97v-24.8Z"/></g><path d="M46.266 63.198a6.073 6.073 0 0 0 6.073-6.073v-8.098H0v8.098a6.073 6.073 0 0 0 6.073 6.073h40.193Zm-20.202-9.363a2.277 2.277 0 0 1 .107 4.553l-.107.002H8.604a2.277 2.277 0 0 1-.108-4.552l.108-.003h17.46Zm15.689-1.265a3.543 3.543 0 1 1 0 7.085 3.543 3.543 0 0 1 0-7.085Z" opacity=".5"/></svg>